<svg height="512" viewBox="0 0 512 512" width="512" xmlns="http://www.w3.org/2000/svg"><g id="Flat"><path d="m464 296-33.37 33.37a32 32 0 0 1 -45.26 0l-41.37-41.37-72 72-36.48-36.48-43.52-43.52 72-72-41.37-41.37a32 32 0 0 1 0-45.26l33.37-33.37 32 32-24 24 32 32 72.71 72.71 7.29 7.29 32 32 24-24z" fill="#f35244"/><path d="m464 296-33.37 33.37a32 32 0 0 1 -45.26 0l-41.37-41.37-72 72-36.48-36.48c46.13-17.44 91.58-41.83 133.19-74.81l7.29 7.29 32 32 24-24z" fill="#e64c3f"/><path d="m464 296 24-24v-32l-16-16-16 16v-16h-16l-8 40z" fill="#fec9a3"/><path d="m424 132v12h-104v-12a52 52 0 1 1 104 0z" fill="#34507b"/><path d="m424 132v12h-84.31c27.41-7.94 54.25-20.58 76.39-39.59a51.688 51.688 0 0 1 7.92 27.59z" fill="#2f486e"/><path d="m416 144v56a24 24 0 0 1 -15.18 22.32 23.743 23.743 0 0 1 -8.82 1.68h-24l-16 8-40-40 16-16v-32z" fill="#fec9a3"/><path d="m328 144h72v16h-72z" fill="#ffb531"/><path d="m416 152v16a8 8 0 0 1 -8 8h-16a16 16 0 1 1 0-32h16a8 8 0 0 1 8 8z" fill="#f98500"/><path d="m34.422 192h61.578v32h-48l-19.359-12.906a10.423 10.423 0 0 1 -4.641-8.672 10.422 10.422 0 0 1 10.422-10.422z" fill="#bfbfbd"/><path d="m80 392 32-32 40 40 40-40-24-24h-92.686a27.315 27.315 0 0 1 -19.314-8 27.315 27.315 0 0 1 -8-19.314v-84.686h48v56h96l80 80-84.686 84.686a38.628 38.628 0 0 1 -27.314 11.314 38.628 38.628 0 0 1 -27.314-11.314z" fill="#34507b"/><path d="m112 360-24-24-52.686 52.686a11.314 11.314 0 0 0 -3.314 8 11.313 11.313 0 0 0 11.314 11.314h2.015a11.319 11.319 0 0 0 5.06-1.194l29.611-14.806z" fill="#bfbfbd"/><path d="m256 88 24-24h32l16 16-16 16h16v16l-40 8z" fill="#fec9a3"/><path d="m152 280h40l-24 56h-24z" fill="#353f52"/><path d="m192 360h80l-40 40-56-24z" fill="#353f52"/><path d="m352 232-104 104-57.37-57.37a32.043 32.043 0 0 1 0-45.26l58.74-58.74a32 32 0 0 1 45.26 0z" fill="#ffb531"/><path d="m253.373 315.029h45.255v33.941h-45.255z" fill="#353f52" transform="matrix(.707 -.707 .707 .707 -153.921 292.402)"/><path d="m224 312 8-56 48-48h48l24 24-104 104z" fill="#f07800"/><path d="m280 166.27v41.73l-48 48h-48l-2.62-2.62a31.8 31.8 0 0 1 9.25-20.01l58.74-58.74a31.981 31.981 0 0 1 30.63-8.36z" fill="#f98500"/><g fill="#e0e0de"><path d="m56 56h16v96h-16z"/><path d="m88 88h16v72h-16z"/><path d="m152 144h16v56h-16z"/><path d="m152 112h16v16h-16z"/><path d="m456 120h16v56h-16z"/></g><path d="m400.82 222.32a23.743 23.743 0 0 1 -8.82 1.68h-10.36l-55.48-72-6.16-8h20.53l6.03 8 11.69 15.5 5.98-15.5 3.09-8h17.21l-3.26 8-12.02 29.5z" fill="#353f52"/><path d="m340.53 144 6.03 8h-20.4l-6.16-8z" fill="#313b4c"/><path d="m384.53 144-3.26 8h-17.04l3.09-8z" fill="#313b4c"/><path d="m416 152v16a8 8 0 0 1 -8 8h-16a15.962 15.962 0 0 1 -8.39-2.37q16.185-11.655 31.67-24.95a8.012 8.012 0 0 1 .72 3.32z" fill="#f77c00"/></g></svg>